# xmcd
#
# Track frame offsets: 
#        150
#        17327
#        38787
#        57149
#        85904
#        107324
#        125161
#        144170
#        163803
#        181894
#        199263
#        216209
#        233693
#        250414
#        268116
#        282228
#        300317
#        324707
#
# Disc length: 4566 seconds
#
# Revision: 0
# Processed by: cddbd v1.5.2PL0 Copyright (c) Steve Scherf et al.
# Submitted via: ExactAudioCopy v1.0b1
#
DISCID=f711d412
DTITLE=Keith Urban - Greatest Hits
DYEAR=2007
DGENRE=Country
TTITLE0=Romeo's Tune
TTITLE1=Got it Right This Time (The Celebration)
TTITLE2=I Told You So
TTITLE3=Stupid Boy
TTITLE4=Better Life
TTITLE5=Making Memories of Us
TTITLE6=Once In A Lifetime (Radio Edit)
TTITLE7=Tonight I Wanna Cry
TTITLE8=You're My Better Half (Single Edit)
TTITLE9=Days Go By
TTITLE10=But For The Grace Of God
TTITLE11=You'll Think Of Me
TTITLE12=Who Wouldn't Wanna Be Me
TTITLE13=Raining On Sunday
TTITLE14=Where the Blacktop Ends
TTITLE15=You're Everything
TTITLE16=Somebody Like You
TTITLE17=Everybody
EXTD=
EXTT0=
EXTT1=
EXTT2=
EXTT3=
EXTT4=
EXTT5=
EXTT6=
EXTT7=
EXTT8=
EXTT9=
EXTT10=
EXTT11=
EXTT12=
EXTT13=
EXTT14=
EXTT15=
EXTT16=
EXTT17=
PLAYORDER=
